/* XPM */
static char * ecb_close_xpm[] = {
"16 17 21 1",
" 	c None",
".	c #2B2B2B",
"+	c #878787",
"@	c #363636",
"#	c #BABABA",
"$	c #AFAFAF",
"%	c #5F5F5F",
"&	c #939393",
"*	c #3D3D3D",
"=	c #B4B4B4",
"-	c #6C6C6C",
";	c #2C2C2C",
">	c #858585",
",	c #B6B6B6",
"'	c #6F6F6F",
")	c #2E2E2E",
"!	c #9B9B9B",
"~	c #404040",
"{	c #B3B3B3",
"]	c #6A6A6A",
"^	c #949494",
"................",
"................",
"................",
"................",
"..+@............",
"..#$%...........",
"..###&*.........",
"..####=-;.......",
"..######>.......",
"..####,').......",
"..###!~.........",
"..#{]...........",
"..^*............",
"................",
"................",
"................",
"................"};
